<svg xmlns="http://www.w3.org/2000/svg" xmlns:xlink="http://www.w3.org/1999/xlink" version="1.1" x="0px" y="0px" viewBox="0 0 64 80" style="enable-background:new 0 0 64 64;" xml:space="preserve"><path d="M11.07,49c-2.757,0-5,2.243-5,5s2.243,5,5,5c2.757,0,5-2.243,5-5S13.827,49,11.07,49z M11.07,57c-1.654,0-3-1.346-3-3  s1.346-3,3-3c1.654,0,3,1.346,3,3S12.724,57,11.07,57z"/><path d="M49.07,59c2.757,0,5-2.243,5-5s-2.243-5-5-5c-2.757,0-5,2.243-5,5S46.313,59,49.07,59z M49.07,51c1.654,0,3,1.346,3,3  s-1.346,3-3,3c-1.654,0-3-1.346-3-3S47.416,51,49.07,51z"/><path d="M62.07,19h-20c-0.552,0-1,0.448-1,1v4v15.586L39.656,41H36.96c1.3-1.272,2.11-3.042,2.11-5v-7  c0-3.115-2.046-5.759-4.864-6.664c0.916-0.875,1.554-2.034,1.774-3.336h0.09c0.552,0,1-0.448,1-1c0-3.86-3.14-7-7-7  c-3.86,0-7,3.14-7,7c0,0.552,0.448,1,1,1h0.09c0.319,1.889,1.519,3.479,3.166,4.33l-0.963,0.963C26.175,24.48,26.07,24.735,26.07,25  v4h-5.101c-0.465-2.279-2.484-4-4.899-4h-1v-4h-2v4h-1c-0.552,0-1,0.448-1,1v0.556C10.479,26.212,9.802,26,9.07,26h-2  c-0.552,0-1,0.448-1,1v6c0,0.552,0.448,1,1,1h2c0.732,0,1.409-0.212,2-0.556V40h-4c-3.309,0-6,2.691-6,6c0,0.552,0.448,1,1,1h3.356  c-2.044,1.651-3.356,4.174-3.356,7c0,4.962,4.038,9,9,9c4.274,0,7.855-2.998,8.768-7h20.38c0.913,4.002,4.494,7,8.768,7  c3.525,0,6.574-2.042,8.05-5h5.033c0.552,0,1-0.448,1-1v-4c0-0.552-0.448-1-1-1h-4.315c-0.457-2.001-1.578-3.751-3.124-5h0.439  c0.74,0,1.424-0.215,2.019-0.567l3.274,3.274l1.414-1.414l-3.274-3.274c0.351-0.595,0.567-1.28,0.567-2.019  c0-0.749-0.22-1.443-0.58-2.042c2.558-0.218,4.58-2.345,4.58-4.958V24v-4C63.07,19.448,62.622,19,62.07,19z M43.07,21h18v2h-18V21z   M30.07,13c2.415,0,4.435,1.721,4.899,4h-9.799C25.635,14.721,27.655,13,30.07,13z M33.943,19c-0.445,1.723-2.013,3-3.873,3  c-0.247,0-0.488-0.026-0.723-0.069c0.445-0.523,0.723-1.192,0.723-1.931h-2c0,0.442-0.294,0.806-0.693,0.938  c-0.561-0.515-0.984-1.178-1.181-1.938H33.943z M27.07,31c0.552,0,1-0.448,1-1v-4.586L29.484,24h2.586c2.757,0,5,2.243,5,5v7  c0,2.757-2.243,5-5,5h-4c-1.654,0-3,1.346-3,3v6h-2v-6c0-2.757,2.243-5,5-5h1c0.552,0,1-0.448,1-1v-3.184  c1.161-0.414,2-1.514,2-2.816v-4h-2v4c0,0.551-0.449,1-1,1h-10c-0.551,0-1-0.449-1-1s0.449-1,1-1H27.07z M27.07,46.816  c0.314,0.112,0.648,0.184,1,0.184h11.586l-3,3H27.07V46.816z M20.07,50c-0.551,0-1-0.449-1-1V35h9v2c-3.86,0-7,3.14-7,7v6H20.07z   M9.07,32h-1v-4h1c1.103,0,2,0.897,2,2S10.173,32,9.07,32z M3.196,45c0.445-1.723,2.013-3,3.874-3h5c0.552,0,1-0.448,1-1V27h3  c1.309,0,2.412,0.847,2.821,2.018c-1.57,0.094-2.821,1.389-2.821,2.982c0,0.883,0.391,1.67,1,2.22v13.091  C15.476,45.88,13.376,45,11.07,45H3.196z M11.07,61c-3.86,0-7-3.14-7-7s3.14-7,7-7c3.86,0,7,3.14,7,7S14.93,61,11.07,61z M20.07,54  c0-0.697-0.087-1.372-0.238-2.024C19.912,51.982,19.988,52,20.07,52h2h4h11c0.265,0,0.519-0.105,0.707-0.293L42.484,47h0.858  c-2.044,1.651-3.356,4.174-3.356,7H20.07z M61.07,54v2h-3.315c0.147-0.644,0.232-1.312,0.232-2H61.07z M55.986,54c0,3.86-3.14,7-7,7  s-7-3.14-7-7s3.14-7,7-7S55.986,50.14,55.986,54z M28.07,45c-0.551,0-1-0.449-1-1s0.449-1,1-1h4h8c0.265,0,0.519-0.105,0.707-0.293  L42.484,41H55.07c1.103,0,2,0.897,2,2s-0.897,2-2,2H28.07z M61.07,36c0,1.654-1.346,3-3,3h-3h-12V25h18V36z"/><rect x="45.07" y="35" width="5" height="2"/><rect x="45.07" y="31" width="8" height="2"/><rect x="45.07" y="27" width="12" height="2"/><rect x="37.07" y="11" width="9" height="2"/><rect x="48.07" y="11" width="2" height="2"/><rect x="52.07" y="11" width="2" height="2"/><rect x="56.07" y="11" width="2" height="2"/><rect x="41.07" y="15" width="9" height="2"/><rect x="52.07" y="15" width="2" height="2"/><rect x="56.07" y="15" width="2" height="2"/><rect x="60.07" y="15" width="2" height="2"/><text x="0" y="79" fill="#000000" font-size="5px" font-weight="bold" font-family="'Helvetica Neue', Helvetica, Arial-Unicode, Arial, Sans-serif">Created by Becris</text><text x="0" y="84" fill="#000000" font-size="5px" font-weight="bold" font-family="'Helvetica Neue', Helvetica, Arial-Unicode, Arial, Sans-serif">from the Noun Project</text></svg>